<svg width="643" height="333" viewBox="0 0 643 333" fill="none" xmlns="http://www.w3.org/2000/svg">
<g filter="url(#filter0_d_37_6)">
<path d="M4 20C4 8.9543 12.9543 0 24 0H619C630.046 0 639 8.9543 639 20V305C639 316.046 630.046 325 619 325H24C12.9543 325 4 316.046 4 305V20Z" fill="white"/>
<path d="M4.5 20C4.5 9.23045 13.2304 0.5 24 0.5H619C629.77 0.5 638.5 9.23045 638.5 20V305C638.5 315.77 629.77 324.5 619 324.5H24C13.2304 324.5 4.5 315.77 4.5 305V20Z" stroke="#004E2B"/>
</g>
<defs>
<filter id="filter0_d_37_6" x="0" y="0" width="643" height="333" filterUnits="userSpaceOnUse" color-interpolation-filters="sRGB">
<feFlood flood-opacity="0" result="BackgroundImageFix"/>
<feColorMatrix in="SourceAlpha" type="matrix" values="0 0 0 0 0 0 0 0 0 0 0 0 0 0 0 0 0 0 127 0" result="hardAlpha"/>
<feOffset dy="4"/>
<feGaussianBlur stdDeviation="2"/>
<feComposite in2="hardAlpha" operator="out"/>
<feColorMatrix type="matrix" values="0 0 0 0 0 0 0 0 0 0 0 0 0 0 0 0 0 0 0.25 0"/>
<feBlend mode="normal" in2="BackgroundImageFix" result="effect1_dropShadow_37_6"/>
<feBlend mode="normal" in="SourceGraphic" in2="effect1_dropShadow_37_6" result="shape"/>
</filter>
</defs>
</svg>
