<svg width="150" height="143" viewBox="0 0 150 143" fill="none" xmlns="http://www.w3.org/2000/svg">
<g filter="url(#filter0_d_37_20)">
<path d="M4 20C4 8.9543 12.9543 0 24 0H126C137.046 0 146 8.95431 146 20V115C146 126.046 137.046 135 126 135H24C12.9543 135 4 126.046 4 115V20Z" fill="white"/>
<path d="M4.5 20C4.5 9.23044 13.2304 0.5 24 0.5H126C136.77 0.5 145.5 9.23045 145.5 20V115C145.5 125.77 136.77 134.5 126 134.5H24C13.2304 134.5 4.5 125.77 4.5 115V20Z" stroke="#004E2B"/>
</g>
<defs>
<filter id="filter0_d_37_20" x="0" y="0" width="150" height="143" filterUnits="userSpaceOnUse" color-interpolation-filters="sRGB">
<feFlood flood-opacity="0" result="BackgroundImageFix"/>
<feColorMatrix in="SourceAlpha" type="matrix" values="0 0 0 0 0 0 0 0 0 0 0 0 0 0 0 0 0 0 127 0" result="hardAlpha"/>
<feOffset dy="4"/>
<feGaussianBlur stdDeviation="2"/>
<feComposite in2="hardAlpha" operator="out"/>
<feColorMatrix type="matrix" values="0 0 0 0 0 0 0 0 0 0 0 0 0 0 0 0 0 0 0.25 0"/>
<feBlend mode="normal" in2="BackgroundImageFix" result="effect1_dropShadow_37_20"/>
<feBlend mode="normal" in="SourceGraphic" in2="effect1_dropShadow_37_20" result="shape"/>
</filter>
</defs>
</svg>
