<svg width="350" height="62" viewBox="0 0 350 62" fill="none" xmlns="http://www.w3.org/2000/svg">
<g filter="url(#filter0_d_36_293)">
<path d="M4 20C4 8.95431 12.9543 0 24 0H326C337.046 0 346 8.9543 346 20V34C346 45.0457 337.046 54 326 54H24C12.9543 54 4 45.0457 4 34V20Z" fill="white"/>
<path d="M4.5 20C4.5 9.23045 13.2304 0.5 24 0.5H326C336.77 0.5 345.5 9.23045 345.5 20V34C345.5 44.7696 336.77 53.5 326 53.5H24C13.2305 53.5 4.5 44.7696 4.5 34V20Z" stroke="#004E2B"/>
</g>
<defs>
<filter id="filter0_d_36_293" x="0" y="0" width="350" height="62" filterUnits="userSpaceOnUse" color-interpolation-filters="sRGB">
<feFlood flood-opacity="0" result="BackgroundImageFix"/>
<feColorMatrix in="SourceAlpha" type="matrix" values="0 0 0 0 0 0 0 0 0 0 0 0 0 0 0 0 0 0 127 0" result="hardAlpha"/>
<feOffset dy="4"/>
<feGaussianBlur stdDeviation="2"/>
<feComposite in2="hardAlpha" operator="out"/>
<feColorMatrix type="matrix" values="0 0 0 0 0 0 0 0 0 0 0 0 0 0 0 0 0 0 0.25 0"/>
<feBlend mode="normal" in2="BackgroundImageFix" result="effect1_dropShadow_36_293"/>
<feBlend mode="normal" in="SourceGraphic" in2="effect1_dropShadow_36_293" result="shape"/>
</filter>
</defs>
</svg>
